<svg xmlns="http://www.w3.org/2000/svg" viewBox="0 0 512 512">
  <defs><radialGradient id="bg"><stop stop-color="#1e5670"/><stop offset=".72" stop-color="#0b213e"/><stop offset="1" stop-color="#061125"/></radialGradient><linearGradient id="planet" x2=".9" y2="1"><stop stop-color="#b3eee1"/><stop offset=".46" stop-color="#70c9bf"/><stop offset="1" stop-color="#286f92"/></linearGradient></defs>
  <rect width="512" height="512" rx="112" fill="url(#bg)"/>
  <circle cx="267" cy="270" r="129" fill="url(#planet)"/>
  <path d="M54 346c27-97 156-158 293-148 76 6 128 34 129 59 1 29-73 58-159 66-105 10-213-7-263-37" fill="none" stroke="#d9edd3" stroke-width="18" stroke-linecap="round"/>
  <path d="M69 169l8-32 8 32 32 8-32 8-8 32-8-32-32-8zM412 109l5-22 5 22 22 5-22 5-5 22-5-22-22-5z" fill="#f9dc9c"/>
  <circle cx="135" cy="104" r="3" fill="#afdde8"/><circle cx="386" cy="377" r="4" fill="#afdde8"/>
</svg>
